<svg width="25" height="18" viewBox="0 0 25 18" fill="none" xmlns="http://www.w3.org/2000/svg">
<path d="M5.29848 10.8521C2.43813 11.607 0.637209 13.4354 0.0531984 16.0037C-0.116737 16.7384 0.146598 16.9529 0.473638 17.0544C2.72184 17.7523 6.88292 18.0002 8.51592 18.0002C10.1489 18.0002 14.31 17.7523 16.5582 17.0544C16.8852 16.9529 17.1486 16.7384 16.9786 16.0037C16.3947 13.4356 14.5934 11.6071 11.7334 10.8521L8.77666 13.3484C8.62609 13.4755 8.40679 13.4755 8.25622 13.3484L5.29848 10.8521Z" fill="#291C2E"/>
<path fill-rule="evenodd" clip-rule="evenodd" d="M8.51567 0C6.02805 0 4.02539 2.04014 4.02539 4.57424V4.8835C4.02539 7.41759 6.02805 9.45775 8.51567 9.45775C11.0033 9.45775 13.0059 7.41759 13.0059 4.8835V4.57424C13.0059 2.04014 11.0033 0 8.51567 0Z" fill="#291C2E"/>
<path fill-rule="evenodd" clip-rule="evenodd" d="M19.7578 3.26514C19.1905 3.26508 18.6289 3.37765 18.1048 3.5964C17.5808 3.81516 17.1046 4.13582 16.7035 4.54007C16.3024 4.94433 15.9842 5.42426 15.7671 5.95247C15.5501 6.48068 15.4383 7.04682 15.4383 7.61856C15.4386 7.72495 15.4428 7.83129 15.4509 7.93737L14.1768 9.0206V9.6884H15.9624C16.3323 10.3783 16.8803 10.9547 17.5483 11.3567C18.2164 11.7586 18.9797 11.9712 19.7578 11.972C20.9032 11.9719 22.0017 11.5133 22.8116 10.6968C23.6215 9.88043 24.0766 8.77315 24.0766 7.61856C24.0766 6.46398 23.6215 5.3567 22.8116 4.54028C22.0017 3.72387 20.9032 3.26519 19.7578 3.26514ZM19.7578 5.09285C20.1601 5.09285 20.4862 5.42154 20.4862 5.82708C20.4862 6.23262 20.1601 6.5613 19.7578 6.5613C19.3554 6.5613 19.0294 6.23262 19.0294 5.82708C19.0294 5.42154 19.3554 5.09285 19.7578 5.09285ZM18.7041 7.04072H19.9572C20.1799 7.04072 20.3592 7.22144 20.3592 7.44588V9.14196H20.8108V10.1443H18.7041V9.14196H19.1557V7.81118L18.7041 7.6083V7.04072Z" fill="#291C2E"/>
</svg>
