<svg width="25" height="24" viewBox="0 0 25 24" fill="none" xmlns="http://www.w3.org/2000/svg">
<path d="M21.0697 16.7379V11.2983C21.0911 9.38659 20.4703 7.52311 19.3067 6.00628C18.143 4.48966 16.5038 3.40748 14.6519 2.93333C14.3592 2.85424 14.0618 2.79409 13.7612 2.75331C13.541 2.72015 13.3194 2.69852 13.0969 2.68863C12.6052 2.66597 12.1128 2.6876 11.625 2.75331C11.3251 2.78894 11.0279 2.8427 10.7346 2.91479C8.90735 3.35723 7.28137 4.4003 6.11757 5.87696C4.95381 7.35361 4.31958 9.17812 4.31673 11.0583V16.7379L3.17254 19.1602H3.17234C2.9575 19.6028 2.98592 20.125 3.24772 20.5417C3.50952 20.9583 3.96759 21.2105 4.45967 21.2088H20.9267C21.4153 21.2032 21.8672 20.9486 22.1251 20.5336C22.383 20.1187 22.4114 19.6007 22.2001 19.1601L21.0697 16.7379Z" fill="#291C2E"/>
<path d="M13.1386 1.83059C13.2908 1.83059 13.443 1.83059 13.6 1.85819C13.9392 1.89341 14.2766 1.94573 14.6105 2.01515C14.5304 1.64583 14.3425 1.30867 14.0707 1.04623C13.7386 0.715026 13.2986 0.514399 12.8309 0.481021C12.3631 0.447643 11.8988 0.584008 11.5233 0.864754C11.1478 1.1457 10.8858 1.5523 10.7855 2.01058C11.1178 1.94137 11.4546 1.8907 11.8006 1.85362C12.2457 1.81572 12.6927 1.80814 13.1386 1.83059Z" fill="#291C2E"/>
<path d="M9.67791 22.0852H8.65833C8.92548 22.6605 9.35246 23.1468 9.8882 23.4862C10.4239 23.8259 11.0462 24.0041 11.6804 23.9999H13.7105C14.5968 24.0022 15.4475 23.65 16.0729 23.0218C16.3456 22.7567 16.5676 22.444 16.7281 22.099H9.67807L9.67791 22.0852Z" fill="#291C2E"/>
<path d="M24.9227 6.1722C23.5903 3.50396 21.4269 1.3406 18.7586 0.00806115C18.5547 -0.0304566 18.3502 0.0717063 18.2587 0.257912C18.1672 0.444117 18.2113 0.668426 18.3664 0.806199C20.8593 2.05258 22.8802 4.07504 24.1245 6.56906C24.2036 6.71778 24.3575 6.8115 24.526 6.81356C24.5933 6.81418 24.6599 6.79832 24.7196 6.76742C24.933 6.6531 25.0216 6.39316 24.9227 6.17215L24.9227 6.1722Z" fill="#291C2E"/>
<path d="M6.65599 0.806198C6.81109 0.668398 6.85517 0.44409 6.76372 0.257911C6.67227 0.0717318 6.46773 -0.030459 6.26381 0.0080603C3.59557 1.34055 1.43221 3.5039 0.0996711 6.1722C0.000802279 6.39321 0.0893724 6.65316 0.302766 6.76747C0.362499 6.79837 0.429028 6.81423 0.496386 6.81361C0.664874 6.81155 0.81874 6.71783 0.897835 6.56912C2.14216 4.07514 4.16298 2.05268 6.65595 0.806251L6.65599 0.806198Z" fill="#291C2E"/>
</svg>
