<svg width="18" height="16" viewBox="0 0 18 16" fill="none" xmlns="http://www.w3.org/2000/svg">
<path d="M16.3428 1.85077H14.1943V0.599916C14.1943 0.385657 14.0796 0.187613 13.8934 0.080347C13.7072 -0.0267823 13.4777 -0.0267823 13.2916 0.080347C13.1054 0.18761 12.9906 0.385664 12.9906 0.599916V1.85077H4.91398V0.599916C4.91398 0.385657 4.79926 0.187613 4.61306 0.080347C4.42687 -0.0267823 4.19742 -0.0267823 4.01123 0.080347C3.82503 0.18761 3.71031 0.385664 3.71031 0.599916V1.85077H1.56182C1.14779 1.85158 0.751093 2.01589 0.458359 2.30768C0.165625 2.59947 0.000790986 2.99492 0 3.40763V14.4431C0.000806049 14.8559 0.165639 15.2513 0.458359 15.5431C0.751082 15.8349 1.14779 15.9992 1.56182 16H16.3429C16.757 15.9992 17.1537 15.8349 17.4464 15.5431C17.7391 15.2513 17.904 14.8559 17.9048 14.4431V3.40763C17.9039 2.99492 17.7391 2.59948 17.4464 2.30768C17.1537 2.01587 16.757 1.85156 16.3429 1.85077H16.3428ZM16.7009 6.3502H1.20381V3.40763C1.20381 3.31295 1.24156 3.22216 1.30873 3.1552C1.3759 3.08825 1.46698 3.05062 1.56196 3.05062H3.71059V4.30148H3.71045C3.71045 4.51574 3.82518 4.71378 4.01137 4.82105C4.19757 4.92818 4.42702 4.92818 4.61321 4.82105C4.7994 4.71378 4.91413 4.51573 4.91413 4.30148V3.05062H12.9908V4.30148C12.9908 4.51574 13.1055 4.71378 13.2917 4.82105C13.4779 4.92818 13.7073 4.92818 13.8935 4.82105C14.0797 4.71378 14.1945 4.51573 14.1945 4.30148V3.05062H16.3431H16.3429C16.5408 3.05062 16.7011 3.21038 16.7011 3.40763L16.7009 6.3502Z" fill="#291C2E"/>
</svg>
