<svg width="18" height="18" viewBox="0 0 18 18" fill="none" xmlns="http://www.w3.org/2000/svg">
<g clip-path="url(#clip0_174_125)">
<path d="M9 18C13.9706 18 18 13.9706 18 9C18 4.02944 13.9706 0 9 0C4.02944 0 0 4.02944 0 9C0 13.9706 4.02944 18 9 18Z" fill="#F6D738"/>
<path d="M9.00005 16.6383C13.2185 16.6383 16.6383 13.2185 16.6383 9.00005C16.6383 4.78157 13.2185 1.36182 9.00005 1.36182C4.78157 1.36182 1.36182 4.78157 1.36182 9.00005C1.36182 13.2185 4.78157 16.6383 9.00005 16.6383Z" fill="#F3CC30"/>
<path d="M13.4335 2C14.2203 3.22779 14.6374 4.65595 14.6351 6.11421C14.6351 10.3327 11.2154 13.7524 6.99685 13.7524C5.58569 13.7546 4.20177 13.3639 3 12.6243C3.69028 13.7053 4.64189 14.5949 5.76689 15.2109C6.89189 15.827 8.15401 16.1495 9.43663 16.1488C13.6551 16.1488 17.0749 12.7291 17.0749 8.51061C17.0757 7.20451 16.7413 5.92006 16.1037 4.78014C15.4662 3.64022 14.5468 2.68298 13.4335 2Z" fill="#EDBD31"/>
<path d="M2.69965 9.69904C2.69965 5.97517 5.71855 2.95627 9.44242 2.95627C10.4756 2.95546 11.4951 3.19249 12.4219 3.649C13.3487 4.10551 14.158 4.76925 14.7871 5.5888C14.1963 4.56052 13.3446 3.70635 12.318 3.11253C11.2914 2.51872 10.1264 2.20629 8.94041 2.20679C5.21653 2.20679 2.19678 5.2254 2.19678 8.94928C2.19463 10.4363 2.68627 11.882 3.59455 13.0595C3.00625 12.0374 2.69759 10.8784 2.69965 9.69904Z" fill="#F7DB5E"/>
</g>
<defs>
<clipPath id="clip0_174_125">
<rect width="18" height="18" fill="white"/>
</clipPath>
</defs>
</svg>
