<svg width="20" height="20" viewBox="0 0 20 20" fill="none" xmlns="http://www.w3.org/2000/svg">
<g clip-path="url(#clip0_174_2)">
<path d="M10 20C15.5228 20 20 15.5228 20 10C20 4.47715 15.5228 0 10 0C4.47715 0 0 4.47715 0 10C0 15.5228 4.47715 20 10 20Z" fill="#F6D738"/>
<path d="M9.99999 18.487C14.6872 18.487 18.4869 14.6873 18.4869 10.0001C18.4869 5.31291 14.6872 1.51318 9.99999 1.51318C5.31279 1.51318 1.51306 5.31291 1.51306 10.0001C1.51306 14.6873 5.31279 18.487 9.99999 18.487Z" fill="#F3CC30"/>
<path d="M14.4409 2.75586C15.3151 4.12007 15.7786 5.70691 15.776 7.3272C15.776 12.0144 11.9763 15.8141 7.28909 15.8141C5.72113 15.8165 4.18344 15.3825 2.84814 14.5606C3.61513 15.7617 4.67246 16.7502 5.92247 17.4347C7.17247 18.1192 8.57482 18.4776 9.99996 18.4768C14.6872 18.4768 18.4869 14.6771 18.4869 9.98987C18.4878 8.53865 18.1163 7.11148 17.4079 5.8449C16.6995 4.57833 15.6779 3.51472 14.4409 2.75586Z" fill="#EDBD31"/>
<path d="M2.99967 10.7766C2.99967 6.63899 6.354 3.28466 10.4916 3.28466C11.6396 3.28376 12.7724 3.54713 13.8022 4.05436C14.832 4.5616 15.7312 5.29909 16.4302 6.2097C15.7737 5.06717 14.8274 4.11808 13.6867 3.45829C12.5461 2.7985 11.2516 2.45135 9.93384 2.4519C5.7962 2.4519 2.44093 5.80592 2.44093 9.94356C2.43854 11.5959 2.9848 13.2022 3.994 14.5105C3.34033 13.3748 2.99738 12.087 2.99967 10.7766Z" fill="#F7DB5E"/>
</g>
<defs>
<clipPath id="clip0_174_2">
<rect width="20" height="20" fill="white"/>
</clipPath>
</defs>
</svg>
