<svg width="21" height="19" viewBox="0 0 21 19" fill="none" xmlns="http://www.w3.org/2000/svg">
<path d="M10.0196 12.1559L13.437 8.52148C13.8287 8.11284 13.7853 7.48926 13.3934 7.10209C12.9798 6.71507 12.3487 6.75797 11.9568 7.14514L9.27959 10.0053L8.06071 8.71495C7.66899 8.30631 7.03768 8.28488 6.62408 8.6719C6.21048 9.05891 6.18879 9.68265 6.58051 10.0913L8.53941 12.1773C8.93128 12.5859 9.62789 12.5859 10.0196 12.1559L10.0196 12.1559Z" fill="#291C2E"/>
<path d="M19.0239 7.16665H18.3492C17.6962 3.38175 14.3442 0.5 10.3391 0.5C6.33411 0.5 3.00385 3.38168 2.32909 7.16665H1.67605C0.761864 7.16665 0 7.91942 0 8.8226V11.5967C0 12.0484 0.174151 12.4568 0.500589 12.7795C0.827024 13.0806 1.24061 13.2527 1.6759 13.2527H3.17782C3.61311 13.2527 3.96141 12.9085 3.96141 12.4785V8.52149C3.96141 5.05913 6.81278 2.24193 10.3172 2.24193C13.8217 2.24193 16.673 5.05909 16.673 8.52149V13.9193C16.673 15.3387 15.4977 16.4999 14.0611 16.4999H12.6245C12.5156 16.0482 12.1239 15.7257 11.6231 15.7257L9.03303 15.7259C8.4453 15.7259 7.98828 16.199 7.98828 16.7581V17.4678C7.98828 18.0485 8.46715 18.5 9.03303 18.5H11.6669C12.1457 18.5 12.5374 18.1559 12.6682 17.7258H14.1048C16.2162 17.7258 17.9575 16.027 17.9575 13.9193V13.2311H19.0241C19.4594 13.2311 19.8947 13.059 20.1994 12.758C20.5258 12.4354 20.7 12.0268 20.7 11.5751L20.6998 8.8226C20.6998 7.91937 19.9598 7.18823 19.0238 7.1668L19.0239 7.16665Z" fill="#291C2E"/>
</svg>
