<svg width="20" height="20" viewBox="0 0 20 20" fill="none" xmlns="http://www.w3.org/2000/svg">
<path d="M10.8394 0.347651L11.8388 1.34722L13.1592 0.840908C13.7713 0.605967 14.4579 0.911492 14.6928 1.52359L15.0985 2.58113L16.2318 2.58134C16.8874 2.58134 17.4187 3.11268 17.4187 3.76823L17.4185 5.18182L18.7104 5.75746C19.3092 6.02407 19.5788 6.72561 19.3121 7.32462L18.8509 8.35937L19.6524 9.16065C20.1159 9.62432 20.1159 10.3757 19.6524 10.8394L18.6522 11.8392L19.1591 13.1592C19.3941 13.7713 19.0885 14.4579 18.4764 14.6928L17.4185 15.0985L17.4187 16.2318C17.4187 16.8874 16.8873 17.4187 16.2318 17.4187L14.8176 17.4185L14.2425 18.7104C13.9759 19.3092 13.2744 19.5788 12.6754 19.3121L11.6402 18.8509L10.8393 19.6524C10.3757 20.1159 9.62424 20.1159 9.16057 19.6524L8.16058 18.6522L6.84078 19.1591C6.22868 19.3941 5.54208 19.0885 5.30717 18.4764L4.90104 17.4185L3.76815 17.4187C3.1126 17.4187 2.58125 16.8873 2.58125 16.2318L2.58105 14.8176L1.2896 14.2425C0.690753 13.9759 0.42124 13.2744 0.687891 12.6754L1.14866 11.6402L0.347598 10.8393C-0.115866 10.3757 -0.115866 9.62424 0.347598 9.16057L1.34717 8.16079L0.840855 6.84078C0.605914 6.22868 0.911439 5.54208 1.52354 5.30717L2.58108 4.90104L2.58129 3.76815C2.58129 3.1126 3.11263 2.58125 3.76818 2.58125L5.18219 2.58105L5.75741 1.2896C6.02402 0.690753 6.72555 0.42124 7.32456 0.687891L8.35932 1.14866L9.1606 0.347598C9.62427 -0.115866 10.3757 -0.115866 10.8394 0.347598L10.8394 0.347651ZM10.2099 0.977344C10.1029 0.870328 9.93462 0.862046 9.81808 0.952711L9.79014 0.977344L8.98886 1.77841C8.74274 2.02453 8.3774 2.10319 8.05405 1.98499L7.99733 1.96201L6.96236 1.50124C6.82347 1.43935 6.66222 1.49317 6.58646 1.62109L6.57052 1.65172L5.99546 2.94338C5.86029 3.24663 5.56863 3.44803 5.24055 3.46957L5.18217 3.47143L3.76816 3.47164C3.61602 3.47164 3.49058 3.58611 3.4734 3.7339L3.47154 3.76847L3.47133 4.90136C3.47133 5.25035 3.26744 5.56518 2.95363 5.70969L2.90023 5.73225L1.84248 6.13858C1.70048 6.19302 1.62451 6.34496 1.66135 6.48903L1.67191 6.52194L2.17843 7.84216C2.29683 8.151 2.23391 8.49835 2.01884 8.74528L1.97682 8.79041L0.977247 9.79019C0.870231 9.89721 0.861949 10.0655 0.952407 10.182L0.97704 10.21L1.7781 11.0108C2.02422 11.2569 2.10309 11.6223 1.98489 11.9456L1.96212 12.0024L1.50114 13.0378C1.43925 13.1766 1.49307 13.3379 1.62079 13.4137L1.65163 13.4294L2.94307 14.0044C3.24653 14.1394 3.44793 14.4311 3.46946 14.7594L3.47133 14.8175L3.47153 16.2319C3.47153 16.3841 3.586 16.5095 3.73359 16.5267L3.76816 16.5285H4.90105C5.25025 16.5283 5.56508 16.7322 5.7098 17.0462L5.73216 17.0996L6.13849 18.1576C6.19293 18.2996 6.34487 18.3756 6.48852 18.3389L6.52144 18.3284L7.84123 17.8212C8.15027 17.7026 8.49784 17.7656 8.74499 17.9806L8.79012 18.0229L9.79011 19.0228C9.89713 19.1299 10.0654 19.1381 10.1817 19.0477L10.2097 19.0231L11.0105 18.2218C11.2569 17.9755 11.6222 17.8966 11.9457 18.015L12.0024 18.0378L13.0376 18.4989C13.1765 18.5608 13.3378 18.507 13.4133 18.3793L13.4293 18.3487L14.0043 17.0568C14.1393 16.7533 14.4311 16.5517 14.7594 16.5304L14.8176 16.5285H16.2318C16.384 16.5285 16.5094 16.4141 16.5266 16.2665L16.5285 16.2319V15.0988C16.5282 14.7496 16.7321 14.4346 17.0464 14.2901L17.0998 14.2675L18.1575 13.8616C18.2995 13.8071 18.3755 13.6552 18.3386 13.5115L18.3283 13.4784L17.8211 12.1584C17.7025 11.8494 17.7655 11.5018 17.9807 11.2547L18.0228 11.2095L19.0228 10.21C19.1298 10.1029 19.1381 9.93466 19.0476 9.81812L19.023 9.79018L18.2215 8.98911C17.9754 8.74279 17.8965 8.37744 18.0149 8.05393L18.0379 7.99721L18.4988 6.96246C18.5607 6.82356 18.5069 6.66231 18.379 6.58655L18.3482 6.57061L17.0563 5.99518C16.753 5.86001 16.5516 5.56835 16.5303 5.24006L16.5285 5.18189V3.7683C16.5285 3.61616 16.414 3.49072 16.2662 3.47354L16.2316 3.47168L15.0985 3.47147C14.7493 3.47147 14.4345 3.26758 14.29 2.95357L14.2674 2.90016L13.8615 1.84262C13.8071 1.70062 13.6551 1.62465 13.511 1.6615L13.4779 1.67205L12.1577 2.17857C11.8487 2.29698 11.5013 2.23405 11.2544 2.01898L11.2092 1.97675L10.2099 0.977344ZM12.3741 5.88813C12.5869 6.01108 12.6599 6.28328 12.537 6.4963L8.23417 13.949C8.11121 14.162 7.83901 14.2348 7.62599 14.1121C7.4132 13.9891 7.34013 13.7169 7.46308 13.5039L11.7659 6.05124C11.8889 5.83824 12.1611 5.76538 12.3741 5.88813ZM12.6707 10.5936C13.5722 10.5936 14.3029 11.3243 14.3029 12.2257C14.3029 13.1272 13.5722 13.8579 12.6707 13.8579C11.7694 13.8579 11.0387 13.1272 11.0387 12.2257C11.0387 11.3243 11.7694 10.5936 12.6707 10.5936ZM12.6707 11.4839C12.2611 11.4839 11.9288 11.8161 11.9288 12.2257C11.9288 12.6354 12.2611 12.9676 12.6707 12.9676C13.0806 12.9676 13.4126 12.6354 13.4126 12.2257C13.4126 11.8161 13.0806 11.4839 12.6707 11.4839ZM7.32921 6.14238C8.23048 6.14238 8.96117 6.87307 8.96117 7.77455C8.96117 8.67604 8.23048 9.40673 7.32921 9.40673C6.42773 9.40673 5.69704 8.67604 5.69704 7.77455C5.69704 6.87307 6.42773 6.14238 7.32921 6.14238ZM7.32921 7.03268C6.91936 7.03268 6.58734 7.36491 6.58734 7.77455C6.58734 8.1842 6.91936 8.51643 7.32921 8.51643C7.73886 8.51643 8.07108 8.1842 8.07108 7.77455C8.07108 7.36491 7.73886 7.03268 7.32921 7.03268Z" fill="#291C2E"/>
</svg>
