<svg width="24" height="24" viewBox="0 0 24 24" fill="none" xmlns="http://www.w3.org/2000/svg">
<path d="M21.3798 0H1.7344C0.788337 0 0 0.788337 0 1.7344C0 2.68046 0.788337 3.4688 1.7344 3.4688H21.4113C22.3574 3.4688 23.1457 2.68046 23.1457 1.7344C23.114 0.788337 22.3574 0 21.3799 0H21.3798Z" fill="#291C2E"/>
<path d="M15.8614 10.2656H1.7344C0.788337 10.2656 0 11.054 0 12C0 12.9461 0.788337 13.7344 1.7344 13.7344H15.8929C16.839 13.7344 17.6273 12.9461 17.6273 12C17.5957 11.0225 16.839 10.2656 15.8615 10.2656H15.8614Z" fill="#291C2E"/>
<path d="M21.3798 20.5312H1.7344C0.788337 20.5312 0 21.3196 0 22.2656C0 23.2117 0.788337 24 1.7344 24H21.4113C22.3574 24 23.1457 23.2117 23.1457 22.2656C23.114 21.3196 22.3574 20.5312 21.3799 20.5312H21.3798Z" fill="#291C2E"/>
</svg>
