<svg width="14" height="16" viewBox="0 0 14 16" fill="none" xmlns="http://www.w3.org/2000/svg">
<path d="M9.89159 3.97418C8.50184 3.17181 7.11052 2.36967 5.72065 1.56594L5.92116 1.21705C5.92681 1.2071 5.93236 1.19737 5.93801 1.18878C6.26981 0.622326 6.80234 0.240986 7.39279 0.0828859C7.98324 -0.0752116 8.6344 -0.0117688 9.20494 0.313135C9.21613 0.318789 9.22891 0.325914 9.23886 0.333038C9.80251 0.666436 10.1824 1.19612 10.3407 1.78498C10.4988 2.37543 10.4339 3.02659 10.1105 3.59713C10.1048 3.60832 10.0993 3.61974 10.0905 3.62958L9.89159 3.97418ZM5.75713 11.1355L9.66838 4.36096C8.27863 3.55859 6.88731 2.75645 5.49599 1.95272L2.47613 7.18297H2.4776L1.58647 8.72675C2.97622 9.53048 4.36754 10.3328 5.75741 11.1352L5.75713 11.1355ZM13.3718 15.2201H0.389939C0.174843 15.2201 0 15.3952 0 15.6101C0 15.8249 0.175063 16 0.389939 16H13.3721C13.5872 16 13.762 15.8249 13.762 15.6101C13.762 15.3952 13.5869 15.2201 13.3719 15.2201H13.3718ZM1.49846 14.0974L5.46038 11.4801C4.11857 10.706 2.77679 9.93197 1.43477 9.15652L1.15092 13.8969C1.14809 13.9436 1.1594 13.9916 1.18767 14.0339C1.25553 14.1369 1.3953 14.1652 1.49831 14.0974L1.49846 14.0974Z" fill="#4D3557"/>
</svg>
