<svg width="19" height="19" viewBox="0 0 19 19" fill="none" xmlns="http://www.w3.org/2000/svg">
<path fill-rule="evenodd" clip-rule="evenodd" d="M9.34961 0.5C14.3202 0.5 18.3496 4.52943 18.3496 9.5C18.3496 14.4706 14.3202 18.5 9.34961 18.5C4.37904 18.5 0.349609 14.4706 0.349609 9.5C0.349609 4.52943 4.37904 0.5 9.34961 0.5ZM8.5876 12.731C8.47359 8.72182 11.7623 8.93139 11.7623 6.72639C11.7623 4.17467 7.52335 3.28004 6.93706 7.00325L5.38681 6.81768C6.01032 1.74135 13.3123 2.44625 13.3123 6.62645C13.3123 9.67099 10.1073 9.09592 10.0372 12.731L8.5876 12.731ZM8.49594 15.752V14.0359H10.2121V15.752H8.49594Z" fill="#291C2E"/>
</svg>
