<svg width="30" height="29" viewBox="0 0 30 29" fill="none" xmlns="http://www.w3.org/2000/svg">
<path d="M22.9597 12.0988H20.126V14.7019C20.126 15.4076 19.8457 16.0844 19.3468 16.5833C18.8477 17.0823 18.1709 17.3627 17.4652 17.3627H13.1282L12.9907 17.4558V20.254C12.9903 20.7328 13.1803 21.1921 13.519 21.5306C13.8575 21.8691 14.3168 22.0592 14.7956 22.0589H16.4985H16.4984C16.7418 22.0592 16.9747 22.1566 17.1459 22.3294L17.922 23.1011V23.1009C18.1744 23.3563 18.5184 23.5 18.8776 23.5C19.2367 23.5 19.5808 23.3563 19.8333 23.1009L20.6049 22.3293V22.3294C20.7778 22.1564 21.0122 22.0592 21.2567 22.0589H22.9597C23.4382 22.0584 23.897 21.8681 24.2354 21.5297C24.5738 21.1913 24.7641 20.7325 24.7646 20.254V13.9035C24.7634 13.4253 24.5729 12.9668 24.2346 12.6285C23.8964 12.2903 23.4381 12.0998 22.9597 12.0986L22.9597 12.0988ZM19.3305 18.8837H16.6086C16.3637 18.8837 16.165 18.6852 16.165 18.4403C16.165 18.1953 16.3637 17.9968 16.6086 17.9968H19.3305C19.5755 17.9968 19.774 18.1953 19.774 18.4403C19.774 18.6852 19.5755 18.8837 19.3305 18.8837Z" fill="#291C2E"/>
<path d="M7.70933 16.4757H8.11156C8.27133 16.4758 8.42812 16.5192 8.56545 16.6011C8.70264 16.6831 8.81519 16.8005 8.89106 16.9413L9.07117 17.273C9.25038 17.6022 9.5601 17.8405 9.92432 17.9293C10.2884 18.0181 10.6731 17.9492 10.9837 17.7395L12.6347 16.6273H12.6348C12.7809 16.5282 12.9535 16.4754 13.1301 16.4757H17.4653C17.9358 16.4757 18.3869 16.2887 18.7196 15.9561C19.0522 15.6234 19.2392 15.1722 19.2392 14.7018V7.27373C19.2392 6.80335 19.0522 6.35212 18.7196 6.01953C18.3869 5.68679 17.9358 5.5 17.4653 5.5H7.70943C7.2389 5.5 6.78782 5.68679 6.45508 6.01953C6.12248 6.35212 5.93555 6.80335 5.93555 7.27373V14.7018C5.93555 15.1722 6.12248 15.6234 6.45508 15.9561C6.78782 16.2887 7.2389 16.4757 7.70943 16.4757L7.70933 16.4757ZM12.5873 14.1475C12.4109 14.1475 12.2416 14.0774 12.1169 13.9527C11.9921 13.8278 11.9221 13.6587 11.9221 13.4823C11.9221 13.3058 11.9921 13.1367 12.1169 13.0119C12.2416 12.8872 12.4109 12.8171 12.5873 12.8171C12.7636 12.8171 12.9329 12.8872 13.0576 13.0119C13.1824 13.1367 13.2524 13.3058 13.2524 13.4823C13.2524 13.6587 13.1824 13.8278 13.0576 13.9527C12.9329 14.0774 12.7636 14.1475 12.5873 14.1475ZM11.4471 7.68911C11.8437 7.35652 12.3657 7.21382 12.8764 7.29832C13.387 7.38281 13.8353 7.68615 14.1035 8.12863C14.3718 8.57111 14.4336 9.10874 14.2725 9.60067C14.1114 10.0925 13.7435 10.4893 13.2654 10.6874C13.1163 10.7597 13.0242 10.9134 13.0308 11.0789V11.7086C13.0308 11.9535 12.8321 12.1521 12.5873 12.1521C12.3424 12.1521 12.1438 11.9535 12.1438 11.7086V11.0789C12.1393 10.8224 12.2112 10.5702 12.3504 10.3547C12.4897 10.1391 12.6899 9.96964 12.9257 9.86823C13.1141 9.79028 13.2698 9.64981 13.3668 9.47045C13.4636 9.29093 13.4958 9.08365 13.4578 8.88337C13.4235 8.70787 13.3378 8.54662 13.2113 8.42025C13.085 8.29389 12.9237 8.20807 12.7482 8.17377C12.4888 8.12596 12.2217 8.19604 12.0191 8.36486C11.8166 8.53383 11.6998 8.78416 11.7004 9.04788C11.7004 9.29272 11.5017 9.49139 11.2568 9.49139C11.012 9.49139 10.8133 9.29272 10.8133 9.04788C10.8129 8.52344 11.045 8.02573 11.4471 7.68915L11.4471 7.68911Z" fill="#291C2E"/>
</svg>
