<svg width="21" height="20" viewBox="0 0 21 20" fill="none" xmlns="http://www.w3.org/2000/svg">
<path d="M18.9155 7.33195H15.7669V10.2243C15.7669 11.0084 15.4555 11.7604 14.9011 12.3147C14.3467 12.8692 13.5947 13.1807 12.8106 13.1807H7.99164L7.83887 13.2841V16.3933C7.83837 16.9254 8.04955 17.4356 8.42584 17.8118C8.80198 18.1879 9.31225 18.3991 9.84432 18.3987H11.7364H11.7363C12.0067 18.3991 12.2655 18.5073 12.4557 18.6993L13.3181 19.5567V19.5566C13.5985 19.8403 13.9808 20 14.3799 20C14.7788 20 15.1612 19.8403 15.4417 19.5566L16.2991 18.6992V18.6993C16.4911 18.5071 16.7516 18.3991 17.0233 18.3987H18.9155C19.4472 18.3982 19.957 18.1867 20.3329 17.8108C20.7089 17.4348 20.9204 16.925 20.9209 16.3933V9.33723C20.9196 8.80584 20.7079 8.29637 20.3321 7.92057C19.9563 7.54476 19.447 7.3331 18.9155 7.33179L18.9155 7.33195ZM14.883 14.8707H11.8587C11.5866 14.8707 11.3659 14.6502 11.3659 14.3781C11.3659 14.1059 11.5866 13.8853 11.8587 13.8853H14.883C15.1552 13.8853 15.3758 14.1059 15.3758 14.3781C15.3758 14.6502 15.1552 14.8707 14.883 14.8707Z" fill="#291C2E"/>
<path d="M1.97087 12.1952H2.41779C2.59531 12.1954 2.76953 12.2435 2.92211 12.3346C3.07455 12.4257 3.1996 12.5562 3.28391 12.7126L3.48403 13.0811C3.68315 13.4469 4.02728 13.7117 4.43197 13.8103C4.83649 13.909 5.26394 13.8324 5.60908 13.5995L7.44348 12.3636H7.44364C7.60598 12.2536 7.79768 12.1949 7.994 12.1952H12.8108C13.3336 12.1952 13.8348 11.9875 14.2045 11.6179C14.5741 11.2482 14.7818 10.7469 14.7818 10.2242V1.97081C14.7818 1.44817 14.5741 0.946805 14.2045 0.577257C13.8348 0.207543 13.3336 0 12.8108 0H1.97098C1.44817 0 0.946974 0.207543 0.577256 0.577257C0.207708 0.946805 0 1.44817 0 1.97081V10.2242C0 10.7469 0.207708 11.2482 0.577256 11.6179C0.94697 11.9875 1.44817 12.1952 1.97098 12.1952L1.97087 12.1952ZM7.39078 9.60835C7.19479 9.60835 7.00671 9.53048 6.86813 9.3919C6.72956 9.25315 6.65168 9.06524 6.65168 8.86925C6.65168 8.6731 6.72956 8.48518 6.86813 8.3466C7.00671 8.20803 7.19479 8.13015 7.39078 8.13015C7.58677 8.13015 7.77485 8.20803 7.91343 8.3466C8.05201 8.48518 8.12988 8.6731 8.12988 8.86925C8.12988 9.06524 8.05201 9.25315 7.91343 9.3919C7.77485 9.53048 7.58677 9.60835 7.39078 9.60835ZM6.12393 2.43235C6.5646 2.0628 7.14464 1.90425 7.71201 1.99814C8.27939 2.09201 8.77746 2.42905 9.07554 2.9207C9.37363 3.41235 9.44229 4.00971 9.26329 4.5563C9.08429 5.10273 8.67547 5.54369 8.14425 5.76377C7.97861 5.84412 7.87633 6.01487 7.88359 6.19883V6.89848C7.88359 7.17053 7.66285 7.39127 7.3908 7.39127C7.11875 7.39127 6.89801 7.17053 6.89801 6.89848V6.19883C6.89306 5.91375 6.97291 5.63361 7.12766 5.39406C7.28241 5.15451 7.5048 4.96627 7.76679 4.85359C7.97614 4.76697 8.14921 4.61091 8.25692 4.41161C8.36448 4.21215 8.40028 3.98183 8.35805 3.7593C8.31994 3.5643 8.22475 3.38513 8.08418 3.24472C7.94379 3.10432 7.76462 3.00897 7.5696 2.97086C7.28139 2.91773 6.98457 2.9956 6.75955 3.18318C6.53452 3.37092 6.40469 3.64906 6.40534 3.94209C6.40534 4.21413 6.1846 4.43487 5.91256 4.43487C5.64051 4.43487 5.41977 4.21413 5.41977 3.94209C5.41927 3.35938 5.67714 2.80637 6.1239 2.43238L6.12393 2.43235Z" fill="#291C2E"/>
</svg>
