<svg width="22" height="20" viewBox="0 0 22 20" fill="none" xmlns="http://www.w3.org/2000/svg">
<path d="M21.4496 8.66947L14.0912 1.31103C13.2546 0.471808 12.1184 0 10.9333 0C9.74833 0 8.61205 0.471808 7.77551 1.31103L0.417069 8.66947C0.100869 8.98118 -0.0487385 9.42472 0.014087 9.86444C0.0767636 10.3042 0.344417 10.6879 0.735419 10.8988C1.12626 11.1096 1.59409 11.1226 1.99606 10.9336V16.0279C1.99606 17.0814 2.4145 18.0917 3.15945 18.8366C3.9044 19.5816 4.91467 20 5.96817 20H7.70611V14.429C7.68599 13.6683 7.92904 12.924 8.39386 12.3217C8.85886 11.7192 9.5172 11.2956 10.2582 11.1222C11.2119 10.9142 12.2084 11.1506 12.9673 11.7646C13.726 12.3787 14.1651 13.3039 14.1608 14.28V20H15.8987C16.9522 20 17.9625 19.5815 18.7074 18.8366C19.4524 18.0916 19.8708 17.0814 19.8708 16.0278V10.9335C20.2728 11.1226 20.7406 11.1096 21.1315 10.8988C21.5225 10.6878 21.7901 10.3041 21.8528 9.8644C21.9156 9.42468 21.766 8.98113 21.4498 8.66943L21.4496 8.66947Z" fill="#291C2E"/>
</svg>
