<svg width="19" height="18" viewBox="0 0 19 18" fill="none" xmlns="http://www.w3.org/2000/svg">
<path d="M18.3206 8.85073C18.3011 8.80226 18.2721 8.75915 18.2353 8.72312L15.8883 6.37607C15.7356 6.22344 15.4876 6.22344 15.335 6.37607C15.1823 6.52871 15.1824 6.77671 15.335 6.92935L17.0143 8.60898H5.43725C5.2212 8.60898 5.0459 8.78429 5.0459 9.0002C5.0459 9.21624 5.2212 9.39155 5.43725 9.39155H17.0143L15.3349 11.071C15.1822 11.2237 15.1822 11.4717 15.3349 11.6243C15.4107 11.701 15.5108 11.7394 15.611 11.7394C15.7113 11.7394 15.8114 11.701 15.8881 11.6251L18.2352 9.27806C18.2712 9.24203 18.3002 9.19827 18.3205 9.15045C18.3595 9.05415 18.3595 8.9462 18.3205 8.85069L18.3206 8.85073Z" fill="#291C2E"/>
<path d="M4.26387 8.99993C4.26387 8.35271 4.79055 7.82602 5.43778 7.82602H12.8723V1.95647C12.8723 0.878085 11.995 0 10.9158 0H2.30706C1.22867 0 0.350586 0.878085 0.350586 1.95647V16.0434C0.350586 17.1227 1.22867 18 2.30706 18H10.9158C11.995 18 12.8723 17.1227 12.8723 16.0435V10.174H5.43778C4.79055 10.174 4.26387 9.64729 4.26387 9.00007V8.99993Z" fill="#291C2E"/>
</svg>
