<svg width="13" height="19" viewBox="0 0 13 19" fill="none" xmlns="http://www.w3.org/2000/svg">
<path d="M6.67693 0.78505C6.4945 0.602346 6.24705 0.5 5.989 0.5H1.97167C1.16552 0.5 0.512207 1.15332 0.512207 1.95946V17.0405C0.512207 17.8467 1.16552 18.5 1.97167 18.5H10.7284C11.5346 18.5 12.1879 17.8467 12.1879 17.0405V6.69888C12.1879 6.44084 12.0855 6.19339 11.9028 6.01095L6.67693 0.78505ZM5.86373 4.392C6.13249 4.392 6.35022 4.60972 6.35022 4.87849C6.35022 5.14725 6.13249 5.36497 5.86373 5.36497C5.59497 5.36497 5.37725 5.14725 5.37725 4.87849C5.37725 4.60972 5.59497 4.392 5.86373 4.392ZM4.40427 4.392C4.67304 4.392 4.89076 4.60972 4.89076 4.87849C4.89076 5.14725 4.67304 5.36497 4.40427 5.36497C4.13551 5.36497 3.91779 5.14725 3.91779 4.87849C3.91779 4.60972 4.13551 4.392 4.40427 4.392ZM2.94481 4.392C3.21358 4.392 3.4313 4.60972 3.4313 4.87849C3.4313 5.14725 3.21358 5.36497 2.94481 5.36497C2.67605 5.36497 2.45833 5.14725 2.45833 4.87849C2.45833 4.60972 2.67605 4.392 2.94481 4.392ZM5.86373 15.0947H2.94481C2.67632 15.0947 2.45833 14.8767 2.45833 14.6082C2.45833 14.3397 2.67632 14.1217 2.94481 14.1217H5.86373C6.13222 14.1217 6.35022 14.3397 6.35022 14.6082C6.35022 14.8767 6.13222 15.0947 5.86373 15.0947ZM9.75562 12.6623H2.94481C2.67632 12.6623 2.45833 12.4443 2.45833 12.1758C2.45833 11.9073 2.67632 11.6893 2.94481 11.6893H9.75562C10.0241 11.6893 10.2421 11.9073 10.2421 12.1758C10.2421 12.4443 10.0241 12.6623 9.75562 12.6623ZM9.75562 10.2298H2.94481C2.67632 10.2298 2.45833 10.0118 2.45833 9.74335C2.45833 9.47486 2.67632 9.25686 2.94481 9.25686H9.75562C10.0241 9.25686 10.2421 9.47486 10.2421 9.74335C10.2421 10.0118 10.0241 10.2298 9.75562 10.2298ZM9.75562 7.79741H2.94481C2.67632 7.79741 2.45833 7.57941 2.45833 7.31092C2.45833 7.04243 2.67632 6.82443 2.94481 6.82443H9.75562C10.0241 6.82443 10.2421 7.04243 10.2421 7.31092C10.2421 7.57941 10.0241 7.79741 9.75562 7.79741Z" fill="#291C2E"/>
</svg>
