<svg width="14" height="20" viewBox="0 0 14 20" fill="none" xmlns="http://www.w3.org/2000/svg">
<path d="M13.4863 1.62162C13.4863 0.725907 12.7604 0 11.8647 0H9.48854C9.15145 0 8.98255 0.407529 9.22098 0.645946L12.8404 4.26533C13.0788 4.50378 13.4863 4.33486 13.4863 3.99777L13.4863 1.62162Z" fill="#291C2E"/>
<path d="M7.36287 0.316722C7.16017 0.113718 6.88523 0 6.59851 0H2.13481C1.23909 0 0.513184 0.725907 0.513184 1.62162V18.3784C0.513184 19.2741 1.23909 20 2.13481 20H11.8645C12.7602 20 13.4862 19.2741 13.4862 18.3784V6.88764C13.4862 6.60093 13.3724 6.32598 13.1694 6.12328L7.36287 0.316722ZM6.45932 4.32444C6.75795 4.32444 6.99986 4.56636 6.99986 4.86498C6.99986 5.16361 6.75795 5.40553 6.45932 5.40553C6.1607 5.40553 5.91878 5.16361 5.91878 4.86498C5.91878 4.56636 6.1607 4.32444 6.45932 4.32444ZM4.8377 4.32444C5.13633 4.32444 5.37824 4.56636 5.37824 4.86498C5.37824 5.16361 5.13633 5.40553 4.8377 5.40553C4.53907 5.40553 4.29716 5.16361 4.29716 4.86498C4.29716 4.56636 4.53907 4.32444 4.8377 4.32444ZM3.21608 4.32444C3.5147 4.32444 3.75662 4.56636 3.75662 4.86498C3.75662 5.16361 3.5147 5.40553 3.21608 5.40553C2.91745 5.40553 2.67554 5.16361 2.67554 4.86498C2.67554 4.56636 2.91745 4.32444 3.21608 4.32444ZM6.45932 16.2163H3.21608C2.91776 16.2163 2.67554 15.9741 2.67554 15.6758C2.67554 15.3775 2.91776 15.1353 3.21608 15.1353H6.45932C6.75765 15.1353 6.99986 15.3775 6.99986 15.6758C6.99986 15.9741 6.75765 16.2163 6.45932 16.2163ZM10.7836 13.5136H3.21608C2.91776 13.5136 2.67554 13.2714 2.67554 12.9731C2.67554 12.6748 2.91776 12.4326 3.21608 12.4326H10.7836C11.082 12.4326 11.3242 12.6748 11.3242 12.9731C11.3242 13.2714 11.082 13.5136 10.7836 13.5136ZM10.7836 10.8109H3.21608C2.91776 10.8109 2.67554 10.5687 2.67554 10.2704C2.67554 9.97206 2.91776 9.72985 3.21608 9.72985H10.7836C11.082 9.72985 11.3242 9.97206 11.3242 10.2704C11.3242 10.5687 11.082 10.8109 10.7836 10.8109ZM10.7836 8.10823H3.21608C2.91776 8.10823 2.67554 7.86601 2.67554 7.56769C2.67554 7.26936 2.91776 7.02715 3.21608 7.02715H10.7836C11.082 7.02715 11.3242 7.26936 11.3242 7.56769C11.3242 7.86601 11.082 8.10823 10.7836 8.10823Z" fill="#291C2E"/>
</svg>
