<svg width="19" height="20" viewBox="0 0 19 20" fill="none" xmlns="http://www.w3.org/2000/svg">
<path fill-rule="evenodd" clip-rule="evenodd" d="M2.78985 19.9999L16.2383 19.9775C16.9206 19.9775 17.5708 19.663 18.0013 19.1221C18.4317 18.5821 18.595 17.8745 18.4461 17.1975V17.196C17.525 13.0784 13.8722 9.99998 9.51145 9.99998C5.15289 9.99998 1.50091 13.0762 0.555415 17.1854L0.554734 17.1892C0.403629 17.8762 0.569214 18.5915 1.00415 19.1368C1.43856 19.683 2.09561 20 2.79017 20L2.78985 19.9999ZM9.54787 0C6.98282 0 4.90064 2.09924 4.90064 4.68437C4.90064 7.26967 6.98273 9.36829 9.54787 9.36829C12.113 9.36829 14.1955 7.26976 14.1955 4.68437C14.1955 2.09906 12.1127 0 9.54787 0Z" fill="#291C2E"/>
</svg>
