<svg width="19" height="19" viewBox="0 0 19 19" fill="none" xmlns="http://www.w3.org/2000/svg">
<path d="M17.4056 10.274H13.5713C12.9007 10.274 12.2812 10.6317 11.9458 11.2124C11.6105 11.7931 11.6105 12.5086 11.9458 13.0894C12.2811 13.6701 12.9007 14.0278 13.5713 14.0278H17.4056C17.6617 14.0271 17.9071 13.925 18.0883 13.7439C18.2694 13.5627 18.3715 13.3173 18.3722 13.0612V11.2406C18.3721 10.9843 18.2701 10.7386 18.0888 10.5573C17.9076 10.3761 17.6619 10.2741 17.4055 10.2739L17.4056 10.274ZM14.1286 13.1997C13.7561 13.1955 13.4138 12.9944 13.2288 12.6711C13.0438 12.3478 13.0438 11.9508 13.2288 11.6274C13.4138 11.3042 13.7561 11.1031 14.1286 11.0988C14.5011 11.1031 14.8435 11.3042 15.0285 11.6274C15.2135 11.9508 15.2135 12.3478 15.0285 12.6711C14.8434 12.9944 14.501 13.1955 14.1286 13.1997Z" fill="#291C2E"/>
<path d="M14.8021 4.97324L13.4842 2.85624C13.2733 2.52007 12.9409 2.27827 12.5562 2.18102C12.1715 2.08378 11.7641 2.13873 11.4188 2.33422C11.3931 2.34716 7.18799 4.97325 7.18799 4.97325L14.8021 4.97324Z" fill="#291C2E"/>
<path d="M13.5709 14.8333C10.0151 14.6988 10.0151 9.60008 13.5709 9.46824H16.8253V7.38991C16.8246 6.96281 16.6547 6.55342 16.3526 6.2515C16.0507 5.94942 15.6413 5.77955 15.2142 5.77881H1.93873C1.51164 5.77953 1.10225 5.94941 0.800324 6.2515C0.498244 6.55343 0.328373 6.96281 0.327637 7.38991V16.8889C0.327781 17.3162 0.497522 17.7259 0.799735 18.0281C1.10181 18.3302 1.51149 18.4999 1.93873 18.5H15.2142C15.6414 18.4999 16.0511 18.3302 16.3532 18.0281C16.6554 17.7259 16.8251 17.3162 16.8253 16.8889V14.8332C16.4313 14.8305 14.023 14.8351 13.5709 14.8332V14.8333Z" fill="#291C2E"/>
<path d="M5.66981 4.97333C5.66981 4.97333 10.9686 1.65204 11.0897 1.59651C10.6405 1.0329 10.0959 0.495769 9.324 0.500962C8.80687 0.484275 8.30656 0.685374 7.94494 1.05522L4.06836 4.97341C4.4681 4.96952 5.27626 4.97614 5.66981 4.97341V4.97333Z" fill="#291C2E"/>
<path d="M14.1283 11.7432C13.9064 11.7466 13.7285 11.9274 13.7285 12.1492C13.7285 12.371 13.9066 12.5517 14.1283 12.5552C14.3501 12.5517 14.528 12.371 14.528 12.1492C14.528 11.9274 14.3501 11.7466 14.1283 11.7432Z" fill="#291C2E"/>
</svg>
