<svg width="22" height="24" viewBox="0 0 22 24" fill="none" xmlns="http://www.w3.org/2000/svg">
<path d="M19.0104 16.7379V11.2983C19.0318 9.38659 18.411 7.52311 17.2474 6.00628C16.0836 4.48966 14.4445 3.40748 12.5925 2.93333C12.2998 2.85424 12.0024 2.79409 11.7019 2.75331C11.4817 2.72015 11.2601 2.69852 11.0376 2.68863C10.5459 2.66597 10.0534 2.6876 9.56568 2.75331C9.26578 2.78894 8.96857 2.8427 8.67523 2.91479C6.84803 3.35723 5.22204 4.4003 4.05824 5.87696C2.89449 7.35361 2.26025 9.17812 2.2574 11.0583V16.7379L1.11322 19.1602H1.11301C0.898177 19.6028 0.926599 20.125 1.1884 20.5417C1.4502 20.9583 1.90827 21.2105 2.40034 21.2088H18.8674C19.356 21.2032 19.8079 20.9486 20.0658 20.5336C20.3237 20.1187 20.3521 19.6007 20.1408 19.1601L19.0104 16.7379Z" fill="#291C2E"/>
<path d="M11.0793 1.83059C11.2315 1.83059 11.3837 1.83059 11.5407 1.85819C11.8799 1.89341 12.2173 1.94573 12.5512 2.01515C12.4711 1.64583 12.2832 1.30867 12.0113 1.04623C11.6793 0.715026 11.2393 0.514399 10.7715 0.481021C10.3038 0.447643 9.83949 0.584008 9.464 0.864754C9.0885 1.1457 8.82649 1.5523 8.7262 2.01058C9.05844 1.94137 9.39524 1.8907 9.74125 1.85362C10.1864 1.81572 10.6333 1.80814 11.0793 1.83059Z" fill="#291C2E"/>
<path d="M7.61859 22.0852H6.599C6.86615 22.6605 7.29314 23.1468 7.82887 23.4862C8.36461 23.8259 8.98688 24.0041 9.62106 23.9999H11.6512C12.5375 24.0022 13.3881 23.65 14.0135 23.0218C14.2862 22.7567 14.5083 22.444 14.6688 22.099H7.61875L7.61859 22.0852Z" fill="#291C2E"/>
<circle cx="18.5" cy="5.5" r="3" fill="#F30000" stroke="#FFD401"/>
</svg>
