<svg width="19" height="19" viewBox="0 0 19 19" fill="none" xmlns="http://www.w3.org/2000/svg">
<path d="M15.7687 13.0535V8.97376C15.7847 7.54001 15.3191 6.1424 14.4464 5.00477C13.5736 3.86731 12.3443 3.05567 10.9553 2.70006C10.7358 2.64074 10.5127 2.59563 10.2873 2.56504C10.1222 2.54017 9.95594 2.52395 9.78908 2.51653C9.42034 2.49954 9.05097 2.51576 8.68516 2.56504C8.46023 2.59177 8.23732 2.63209 8.01732 2.68616C6.64692 3.01798 5.42743 3.80029 4.55458 4.90778C3.68176 6.01527 3.20608 7.38365 3.20395 8.7938V13.0535L2.34581 14.8702H2.34565C2.18453 15.2022 2.20584 15.5938 2.40219 15.9063C2.59854 16.2188 2.9421 16.4079 3.31115 16.4067H15.6614C16.0279 16.4025 16.3668 16.2115 16.5602 15.9002C16.7537 15.5891 16.775 15.2006 16.6165 14.8702L15.7687 13.0535Z" fill="#291C2E"/>
<path d="M9.82047 1.87282C9.93463 1.87282 10.0488 1.87282 10.1665 1.89352C10.4209 1.91994 10.674 1.95918 10.9244 2.01124C10.8643 1.73425 10.7234 1.48138 10.5195 1.28455C10.2705 1.03615 9.9405 0.885677 9.58967 0.860644C9.23885 0.83561 8.89063 0.937884 8.60901 1.14844C8.32739 1.35916 8.13088 1.6641 8.05566 2.00781C8.30485 1.9559 8.55744 1.9179 8.81695 1.89009C9.15079 1.86167 9.48602 1.85598 9.82047 1.87282Z" fill="#291C2E"/>
<path d="M7.22514 17.064H6.46045C6.66081 17.4954 6.98105 17.8602 7.38286 18.1147C7.78466 18.3695 8.25136 18.5031 8.727 18.5H10.2496C10.9143 18.5017 11.5523 18.2376 12.0213 17.7664C12.2259 17.5676 12.3924 17.3331 12.5128 17.0743H7.22526L7.22514 17.064Z" fill="#291C2E"/>
<path d="M18.6585 5.12915C17.6591 3.12797 16.0366 1.50545 14.0354 0.506046C13.8824 0.477158 13.729 0.55378 13.6605 0.693434C13.5919 0.833088 13.6249 1.00132 13.7412 1.10465C15.6109 2.03943 17.1266 3.55628 18.0598 5.4268C18.1192 5.53833 18.2346 5.60863 18.3609 5.61017C18.4114 5.61063 18.4613 5.59874 18.5061 5.57556C18.6662 5.48983 18.7326 5.29487 18.6585 5.12911L18.6585 5.12915Z" fill="#291C2E"/>
<path d="M4.95873 1.10465C5.07505 1.0013 5.10811 0.833068 5.03953 0.693433C4.97094 0.553799 4.81753 0.477156 4.66459 0.506045C2.66341 1.50541 1.04089 3.12793 0.0414892 5.12915C-0.0326624 5.29491 0.0337652 5.48987 0.19381 5.5756C0.23861 5.59878 0.288507 5.61067 0.339025 5.61021C0.465391 5.60866 0.580791 5.53837 0.640112 5.42684C1.57335 3.55636 3.08897 2.03951 4.9587 1.10469L4.95873 1.10465Z" fill="#291C2E"/>
</svg>
