<svg width="19" height="19" viewBox="0 0 19 19" fill="none" xmlns="http://www.w3.org/2000/svg">
<path d="M12.5009 12.3574C12.27 12.3563 12.0518 12.2514 11.907 12.0716C11.7661 11.8933 11.7138 11.6607 11.7653 11.4394L12.1073 9.9206C12.1082 9.91605 12.1082 9.9115 12.1073 9.90711C12.1123 9.89094 12.1183 9.87525 12.1252 9.85986C12.1239 9.85155 12.1239 9.84323 12.1252 9.83507V9.81937L13.3177 7.84387V1.60697C13.3178 1.31771 13.2045 1.03977 13.0024 0.832887C12.8 0.625875 12.5247 0.506437 12.2355 0.5H1.6111C1.3173 0.5 1.03558 0.61661 0.82762 0.824096C0.619664 1.03158 0.502423 1.31315 0.501953 1.60693V17.3931C0.502424 17.6869 0.619664 17.9684 0.82762 18.1759C1.03558 18.3834 1.31732 18.5 1.6111 18.5H8.24417V13.7388C8.24417 13.5524 8.39515 13.4014 8.58161 13.4014H13.3428V11.8735L12.9873 12.1774C12.852 12.2937 12.6797 12.3574 12.5012 12.3574L12.5009 12.3574ZM6.23022 16.4074H2.7314C2.63833 16.4074 2.56268 16.3317 2.56268 16.2385C2.56268 16.1454 2.63833 16.0698 2.7314 16.0698H6.23243C6.32566 16.0698 6.40131 16.1454 6.40131 16.2385C6.40131 16.3317 6.32566 16.4074 6.23243 16.4074H6.23022ZM6.23022 13.1269H2.7314C2.63833 13.1269 2.56268 13.0512 2.56268 12.958C2.56268 12.8649 2.63833 12.7893 2.7314 12.7893H6.23243C6.32566 12.7893 6.40131 12.8649 6.40131 12.958C6.40131 13.0512 6.32566 13.1269 6.23243 13.1269H6.23022ZM11.1127 9.84636H2.73148C2.63841 9.84636 2.56276 9.77072 2.56276 9.67765C2.56276 9.58442 2.63841 9.50877 2.73148 9.50877H11.1151C11.2084 9.50877 11.284 9.58442 11.284 9.67765C11.284 9.77072 11.2084 9.84636 11.1151 9.84636H11.1127ZM11.1127 6.56587H2.73148C2.63841 6.56587 2.56276 6.49022 2.56276 6.39715C2.56276 6.30393 2.63841 6.22828 2.73148 6.22828H11.1151C11.2084 6.22828 11.284 6.30393 11.284 6.39715C11.284 6.49022 11.2084 6.56587 11.1151 6.56587H11.1127ZM11.1127 3.2673H5.11205C5.01883 3.2673 4.94334 3.19181 4.94334 3.09858C4.94334 3.00535 5.01883 2.92986 5.11205 2.92986H11.1151C11.2084 2.92986 11.284 3.00535 11.284 3.09858C11.284 3.19181 11.2084 3.2673 11.1151 3.2673H11.1127Z" fill="#161614"/>
<path d="M8.5835 18.4999L13.3446 13.7388H8.5835V18.4999Z" fill="#161614"/>
<path d="M12.6123 9.70518L15.9228 4.22363L17.4386 5.1391L14.1281 10.6207L12.6123 9.70518Z" fill="#161614"/>
<path d="M12.0959 11.5248C12.0717 11.6463 12.1031 11.7721 12.1814 11.868C12.2599 11.9638 12.377 12.0195 12.5008 12.0198C12.5987 12.0193 12.6931 11.9832 12.7663 11.9186L13.9521 10.9105L12.4378 9.99487L12.0959 11.5248Z" fill="#161614"/>
<path d="M18.0716 4.10002C18.1926 3.89897 18.229 3.65838 18.1729 3.43065C18.1169 3.20292 17.9728 3.00673 17.7724 2.88494C17.5718 2.76064 17.33 2.72156 17.1005 2.77649C16.8711 2.83143 16.6731 2.97582 16.5505 3.1775L16.1006 3.9357L17.6148 4.84912L18.0716 4.10002Z" fill="#161614"/>
</svg>
