<svg width="15" height="19" viewBox="0 0 15 19" fill="none" xmlns="http://www.w3.org/2000/svg">
<path d="M10.6743 0.80624V4.01342H13.8815L10.6743 0.80624ZM9.46702 10.4278L7.68321 12.698C7.57513 12.8422 7.413 12.9323 7.23277 12.9503H7.16075C6.99862 12.9503 6.85446 12.8962 6.74637 12.7881L5.61121 11.8152C5.34099 11.581 5.30492 11.1666 5.53919 10.8963C5.77347 10.6261 6.18784 10.5901 6.45808 10.8243L7.08877 11.3649L8.45809 9.61716C8.67427 9.32885 9.08878 9.2929 9.37697 9.50907C9.64732 9.72512 9.70136 10.1396 9.46709 10.4278L9.46702 10.4278ZM10.1517 5.07648C9.86341 5.07648 9.62928 4.84221 9.62928 4.55403V0.5H2.42212C1.3591 0.5 0.494141 1.36483 0.494141 2.42798V16.572C0.494141 17.635 1.35897 18.5 2.42212 18.5H12.2779C13.3409 18.5 14.2059 17.6352 14.2059 16.572L14.2058 5.07629L10.1517 5.07648ZM11.2329 11.0404C11.2329 14.2296 7.66533 15.7791 7.52118 15.8512C7.46714 15.8692 7.395 15.8872 7.32298 15.8872C7.25096 15.8872 7.19679 15.8693 7.12478 15.8512C6.98062 15.7792 3.41309 14.2296 3.41309 11.0404V8.40972C3.41309 8.19355 3.53928 8.01333 3.73735 7.94129L7.16075 6.77019C7.26884 6.73412 7.37692 6.73412 7.46704 6.77019L10.8904 7.94129C11.0886 8.01331 11.2147 8.19354 11.2147 8.40972L11.2148 11.0404H11.2329Z" fill="#291C2E"/>
</svg>
