<svg width="17" height="19" viewBox="0 0 17 19" fill="none" xmlns="http://www.w3.org/2000/svg">
<path fill-rule="evenodd" clip-rule="evenodd" d="M2.31086 18.4999L14.4145 18.4798C15.0285 18.4798 15.6138 18.1967 16.0012 17.7099C16.3885 17.2239 16.5355 16.5871 16.4015 15.9778V15.9764C15.5725 12.2705 12.2849 9.49998 8.36031 9.49998C4.4376 9.49998 1.15082 12.2686 0.299874 15.9669L0.299261 15.9703C0.163266 16.5886 0.312293 17.2323 0.703734 17.7232C1.0947 18.2147 1.68605 18.5 2.31115 18.5L2.31086 18.4999ZM8.39308 0.5C6.08454 0.5 4.21057 2.38932 4.21057 4.71593C4.21057 7.0427 6.08446 8.93146 8.39308 8.93146C10.7017 8.93146 12.576 7.04278 12.576 4.71593C12.576 2.38916 10.7015 0.5 8.39308 0.5Z" fill="#161614"/>
</svg>
