<svg width="20" height="19" viewBox="0 0 20 19" fill="none" xmlns="http://www.w3.org/2000/svg">
<path d="M0.836659 10.281C0.730112 10.1294 0.716572 9.93137 0.801372 9.76667C0.886172 9.602 1.05536 9.49805 1.24055 9.49669H1.95423C1.95492 7.42951 2.66722 5.42564 3.97148 3.82201C5.2756 2.21807 7.09208 1.11212 9.1157 0.689787C11.1392 0.267556 13.2466 0.554655 15.0831 1.50305C16.9199 2.45143 18.3742 4.00324 19.2014 5.89762C20.0289 7.79194 20.1789 9.91335 19.6265 11.9053C19.0741 13.8972 17.8529 15.6384 16.1678 16.8359C14.4829 18.0335 12.4371 18.6145 10.3744 18.4813C8.31164 18.3482 6.35732 17.509 4.84052 16.1047C4.63906 15.9407 4.51446 15.7006 4.49654 15.4414C4.47862 15.1822 4.56889 14.9271 4.74574 14.7369C4.92272 14.5466 5.17056 14.4382 5.43043 14.4373C5.69017 14.4364 5.93883 14.5432 6.11702 14.7322C7.31816 15.8436 8.86518 16.5077 10.4983 16.6129C12.1314 16.718 13.7507 16.2578 15.0844 15.3097C16.418 14.3616 17.3849 12.9833 17.8223 11.4063C18.2595 9.82936 18.1408 8.15007 17.486 6.65043C16.8311 5.15079 15.6799 3.92223 14.226 3.17122C12.7721 2.42035 11.1039 2.19262 9.50195 2.52661C7.90007 2.86048 6.46178 3.73567 5.42916 5.00506C4.39639 6.27431 3.83193 7.86047 3.83085 9.49697H4.54453C4.73041 9.49697 4.90069 9.60065 4.98578 9.76587C5.07085 9.93109 5.05649 10.1301 4.94844 10.2812L3.29159 12.5891C3.19858 12.7198 3.04813 12.7972 2.8877 12.7972C2.72741 12.7972 2.57696 12.7198 2.48382 12.5891L0.836659 10.281Z" fill="#161614"/>
<path d="M14.259 8.26556L13.9874 9.24674H8.79874L9.07037 8.26556H14.259ZM11.7478 14.3356L8.9595 11.0483L8.95396 10.2224H10.2788C10.6225 10.2224 10.9052 10.1614 11.127 10.0394C11.3524 9.91379 11.5205 9.74564 11.6314 9.53499C11.7423 9.32065 11.7977 9.08228 11.7977 8.8199C11.7977 8.53534 11.746 8.28404 11.6425 8.066C11.539 7.84796 11.3746 7.67796 11.1491 7.556C10.9237 7.43405 10.6262 7.37307 10.2567 7.37307H8.80428L9.10363 6.26439H10.2567C10.9108 6.26439 11.454 6.36233 11.8864 6.55819C12.3188 6.75406 12.6422 7.03862 12.8565 7.41188C13.0745 7.78513 13.1836 8.23599 13.1836 8.76446C13.1836 9.22641 13.1041 9.63478 12.9452 9.98955C12.7863 10.3406 12.5294 10.6252 12.1747 10.8432C11.8199 11.0576 11.3487 11.1906 10.7611 11.2424L13.3111 14.2635V14.3356H11.7478ZM14.2645 6.26439L13.9874 7.24557H9.74666L10.0183 6.26439H14.2645Z" fill="#161614"/>
</svg>
