<svg width="22" height="16" viewBox="0 0 22 16" fill="none" xmlns="http://www.w3.org/2000/svg">
<path d="M7.1056 3.10187L4.19627 0.214535V0.214697C4.05904 0.0791466 3.87338 0.00317383 3.67971 0.00317383C3.48603 0.00317383 3.30038 0.0791466 3.16314 0.214697L0.257414 3.09455C0.202454 3.14131 0.155345 3.1965 0.118215 3.25819C-0.0131336 3.4491 -0.0366882 3.69343 0.0558925 3.90558V3.93464C0.142422 4.16061 0.343291 4.32393 0.583597 4.36369C0.650501 4.37294 0.718216 4.37294 0.785119 4.36369H2.9469V15.2727C2.9469 15.5326 3.08659 15.7727 3.3133 15.9026C3.54002 16.0324 3.8194 16.0324 4.04611 15.9026C4.27282 15.7727 4.41251 15.5326 4.41251 15.2727V4.36369C4.55907 4.36369 6.82341 4.41093 6.88216 4.31645C7.08482 4.23966 7.24267 4.07765 7.31351 3.87406C7.38417 3.67049 7.36045 3.4463 7.24857 3.26191C7.21029 3.20087 7.16204 3.14681 7.1056 3.10184L7.1056 3.10187Z" fill="#291C2E"/>
<path d="M11.554 14.5454H9.03304C8.77133 14.5454 8.52942 14.684 8.39856 14.909C8.26754 15.134 8.26754 15.4113 8.39856 15.6363C8.52942 15.8613 8.77134 15.9999 9.03304 15.9999H11.554C11.8157 15.9999 12.0577 15.8613 12.1885 15.6363C12.3195 15.4113 12.3195 15.134 12.1885 14.909C12.0577 14.684 11.8157 14.5454 11.554 14.5454Z" fill="#291C2E"/>
<path d="M14.0748 10.9089H9.03304C8.77133 10.9089 8.52942 11.0476 8.39856 11.2726C8.26754 11.4976 8.26754 11.7748 8.39856 11.9998C8.52942 12.2248 8.77134 12.3635 9.03304 12.3635H14.0748C14.3365 12.3635 14.5784 12.2248 14.7094 11.9998C14.8403 11.7748 14.8403 11.4976 14.7094 11.2726C14.5784 11.0476 14.3365 10.9089 14.0748 10.9089Z" fill="#291C2E"/>
<path d="M16.8301 7.27271H9.03304C8.77133 7.27271 8.52942 7.41134 8.39856 7.63634C8.26754 7.86134 8.26754 8.13861 8.39856 8.36361C8.52942 8.58861 8.77134 8.72724 9.03304 8.72724H16.8301C17.0918 8.72724 17.3337 8.58861 17.4646 8.36361C17.5956 8.13861 17.5956 7.86134 17.4646 7.63634C17.3337 7.41134 17.0918 7.27271 16.8301 7.27271Z" fill="#291C2E"/>
<path d="M19.1202 3.63623H9.03304C8.77133 3.63623 8.52942 3.77486 8.39856 3.99986C8.26754 4.22486 8.26754 4.50214 8.39856 4.72713C8.52942 4.95213 8.77134 5.09077 9.03304 5.09077H19.1202C19.382 5.09077 19.6239 4.95213 19.7547 4.72713C19.8857 4.50213 19.8857 4.22486 19.7547 3.99986C19.6239 3.77486 19.3819 3.63623 19.1202 3.63623Z" fill="#291C2E"/>
<path d="M21.2672 0H9.03304C8.77133 0 8.52942 0.138634 8.39856 0.363634C8.26754 0.588634 8.26754 0.865906 8.39856 1.0909C8.52942 1.3159 8.77134 1.45454 9.03304 1.45454H21.2672C21.529 1.45454 21.7709 1.3159 21.9018 1.0909C22.0327 0.865902 22.0327 0.58863 21.9018 0.363634C21.7709 0.138638 21.529 0 21.2672 0Z" fill="#291C2E"/>
</svg>
