<svg width="25" height="29" viewBox="0 0 25 29" fill="none" xmlns="http://www.w3.org/2000/svg">
<path d="M17.0823 8.53469L14.1992 5.65162C14.1613 5.61365 14.1234 5.59473 14.0854 5.57581V8.64849H17.1581C17.1392 8.61051 17.1012 8.57254 17.0823 8.5347L17.0823 8.53469Z" fill="#161614"/>
<path d="M17.2341 16.3304V9.72972H13.5354C13.2319 9.72972 13.0043 9.48311 13.0043 9.19864V5.5H5.68294C5.37943 5.5 5.15186 5.74662 5.15186 6.03109V20.4842C5.15186 20.7877 5.39847 21.0153 5.68294 21.0153H12.3026C12.8147 22.4568 14.1993 23.5 15.8115 23.5C17.86 23.5 19.5481 21.8308 19.5481 19.7634C19.548 18.2272 18.5806 16.8994 17.2339 16.3303L17.2341 16.3304ZM8.12973 8.64858H10.7662C11.0697 8.64858 11.2973 8.8952 11.2973 9.17967C11.2973 9.48318 11.0507 9.71076 10.7662 9.71076H8.12973C7.82622 9.71076 7.59865 9.46414 7.59865 9.17967C7.59865 8.89508 7.84526 8.64858 8.12973 8.64858ZM8.12973 11.5315H14.2372C14.5407 11.5315 14.7683 11.7781 14.7683 12.0626C14.7683 12.3661 14.5217 12.5937 14.2372 12.5937L8.12973 12.5938C7.82622 12.5938 7.59865 12.3472 7.59865 12.0627C7.59865 11.7782 7.84526 11.5315 8.12973 11.5315V11.5315ZM8.12973 14.4146H14.2372C14.5407 14.4146 14.7683 14.6612 14.7683 14.9457C14.7683 15.2301 14.5217 15.4768 14.2372 15.4768H8.12973C7.82622 15.4768 7.59865 15.2302 7.59865 14.9457C7.59865 14.6612 7.84526 14.4146 8.12973 14.4146ZM11.4301 18.3598H8.12973C7.82622 18.3598 7.59865 18.1132 7.59865 17.8287C7.59865 17.5443 7.84526 17.2976 8.12973 17.2976H11.4301C11.7336 17.2976 11.9612 17.5443 11.9612 17.8287C11.9612 18.1132 11.7335 18.3598 11.4301 18.3598ZM15.8116 22.4378C14.351 22.4378 13.1562 21.2428 13.1562 19.7824C13.1562 18.3219 14.3512 17.1271 15.8116 17.1271C17.2721 17.1271 18.4669 18.322 18.4669 19.7824C18.4669 21.243 17.2721 22.4378 15.8116 22.4378Z" fill="#161614"/>
<path d="M16.532 18.7392L15.375 19.8963L14.9957 19.5169C14.787 19.3083 14.4457 19.3083 14.237 19.5169C14.0284 19.7256 14.0284 20.0669 14.237 20.2756L15.0147 21.0533C15.1285 21.1671 15.2614 21.205 15.3941 21.205C15.5269 21.205 15.6785 21.1481 15.7734 21.0533L17.3288 19.4979C17.5374 19.2892 17.5374 18.9479 17.3288 18.7392C17.082 18.5306 16.7407 18.5306 16.532 18.7392H16.532Z" fill="#161614"/>
</svg>
