<svg width="25" height="24" viewBox="0 0 25 24" fill="none" xmlns="http://www.w3.org/2000/svg">
<path d="M22.7705 13.0318H17.6582C16.764 13.0318 15.9379 13.5088 15.4908 14.2831C15.0437 15.0573 15.0438 16.0113 15.4908 16.7856C15.9379 17.56 16.764 18.0369 17.6582 18.0369H22.7705C23.1121 18.036 23.4393 17.8998 23.6807 17.6583C23.9222 17.4168 24.0584 17.0896 24.0593 16.748V14.3206C24.0592 13.9789 23.9232 13.6512 23.6815 13.4096C23.4398 13.1679 23.1122 13.0319 22.7705 13.0317L22.7705 13.0318ZM18.4011 16.9328C17.9046 16.9272 17.4481 16.6591 17.2014 16.2279C16.9548 15.797 16.9548 15.2676 17.2014 14.8364C17.4481 14.4055 17.9046 14.1373 18.4011 14.1316C18.8979 14.1373 19.3544 14.4055 19.6011 14.8364C19.8477 15.2676 19.8477 15.7969 19.6011 16.2279C19.3542 16.6591 18.8977 16.9272 18.4011 16.9328Z" fill="#291C2E"/>
<path d="M19.299 5.96433L17.5418 3.14166C17.2606 2.69343 16.8174 2.37103 16.3045 2.24136C15.7915 2.1117 15.2483 2.18497 14.788 2.44562C14.7536 2.46289 9.14685 5.96434 9.14685 5.96434L19.299 5.96433Z" fill="#291C2E"/>
<path d="M17.6576 19.111C12.9166 18.9316 12.9166 12.1334 17.6576 11.9576H21.9969V9.18646C21.9959 8.617 21.7694 8.07115 21.3666 7.66858C20.964 7.26581 20.4182 7.03931 19.8487 7.03833H2.14813C1.57867 7.03929 1.03282 7.2658 0.630249 7.66858C0.227476 8.07116 0.000982003 8.617 0 9.18646V21.8518C0.000191785 22.4215 0.226514 22.9677 0.629464 23.3707C1.03224 23.7735 1.57847 23.9998 2.14813 24H19.8487C20.4184 23.9998 20.9646 23.7735 21.3674 23.3707C21.7704 22.9677 21.9967 22.4215 21.9969 21.8518V19.1109C21.4715 19.1072 18.2604 19.1134 17.6576 19.1109V19.111Z" fill="#291C2E"/>
<path d="M7.12318 5.96444C7.12318 5.96444 14.1882 1.53605 14.3497 1.46201C13.7508 0.710534 13.0246 -0.00564096 11.9954 0.00128216C11.3059 -0.0209661 10.6388 0.247166 10.1567 0.740288L4.98792 5.96454C5.5209 5.95936 6.59845 5.96819 7.12318 5.96454V5.96444Z" fill="#291C2E"/>
<path d="M18.401 14.991C18.1053 14.9956 17.868 15.2367 17.868 15.5324C17.868 15.8281 18.1055 16.0691 18.401 16.0736C18.6968 16.069 18.934 15.8281 18.934 15.5324C18.934 15.2366 18.6968 14.9955 18.401 14.991Z" fill="#291C2E"/>
</svg>
