<svg width="94" height="34" viewBox="0 0 94 34" fill="none" xmlns="http://www.w3.org/2000/svg">
<rect width="94" height="34" rx="17" fill="#291C2E"/>
<g clip-path="url(#clip0_174_8)">
<path d="M21 27C26.5228 27 31 22.5228 31 17C31 11.4772 26.5228 7 21 7C15.4772 7 11 11.4772 11 17C11 22.5228 15.4772 27 21 27Z" fill="#F6D738"/>
<path d="M21 25.487C25.6872 25.487 29.4869 21.6873 29.4869 17.0001C29.4869 12.3129 25.6872 8.51318 21 8.51318C16.3128 8.51318 12.5131 12.3129 12.5131 17.0001C12.5131 21.6873 16.3128 25.487 21 25.487Z" fill="#F3CC30"/>
<path d="M25.4409 9.75586C26.3151 11.1201 26.7786 12.7069 26.776 14.3272C26.776 19.0144 22.9763 22.8141 18.2891 22.8141C16.7211 22.8165 15.1834 22.3825 13.8481 21.5606C14.6151 22.7617 15.6725 23.7502 16.9225 24.4347C18.1725 25.1192 19.5748 25.4776 21 25.4768C25.6872 25.4768 29.4869 21.6771 29.4869 16.9899C29.4878 15.5387 29.1163 14.1115 28.4079 12.8449C27.6995 11.5783 26.6779 10.5147 25.4409 9.75586Z" fill="#EDBD31"/>
<path d="M13.9997 17.7766C13.9997 13.639 17.354 10.2847 21.4916 10.2847C22.6396 10.2838 23.7724 10.5471 24.8022 11.0544C25.832 11.5616 26.7312 12.2991 27.4302 13.2097C26.7737 12.0672 25.8274 11.1181 24.6867 10.4583C23.5461 9.7985 22.2516 9.45135 20.9338 9.4519C16.7962 9.4519 13.4409 12.8059 13.4409 16.9436C13.4385 18.5959 13.9848 20.2022 14.994 21.5105C14.3403 20.3748 13.9974 19.087 13.9997 17.7766Z" fill="#F7DB5E"/>
</g>
<path d="M41.9933 16.16C42.3933 15.84 42.6466 15.5133 42.7533 15.18C42.8733 14.8467 42.9333 14.54 42.9333 14.26C42.9333 13.7133 42.7666 13.2533 42.4333 12.88C42.0999 12.4933 41.5466 12.3 40.7733 12.3C40.0399 12.3 39.4999 12.48 39.1533 12.84C38.8199 13.2 38.5799 13.66 38.4333 14.22C38.3933 14.3933 38.3133 14.5267 38.1933 14.62C38.0733 14.7 37.9533 14.74 37.8333 14.74H36.2533C36.1066 14.74 35.9733 14.6933 35.8533 14.6C35.7466 14.4933 35.6999 14.36 35.7133 14.2C35.7533 13.6 35.9066 13.0333 36.1733 12.5C36.4399 11.9667 36.7933 11.5 37.2333 11.1C37.6866 10.7 38.2133 10.3867 38.8133 10.16C39.4133 9.92 40.0599 9.8 40.7533 9.8C41.5933 9.8 42.3199 9.94 42.9333 10.22C43.5466 10.4867 44.0533 10.84 44.4533 11.28C44.8533 11.7067 45.1466 12.1867 45.3333 12.72C45.5333 13.24 45.6333 13.76 45.6333 14.28C45.6333 14.6133 45.6133 14.9333 45.5733 15.24C45.5333 15.5333 45.4399 15.8333 45.2933 16.14C45.1466 16.4333 44.9333 16.7467 44.6533 17.08C44.3733 17.4 43.9999 17.7467 43.5333 18.12L39.8333 21.5H45.3933C45.5399 21.5 45.6666 21.5533 45.7733 21.66C45.8799 21.7667 45.9333 21.8933 45.9333 22.04V23.46C45.9333 23.6067 45.8799 23.7333 45.7733 23.84C45.6666 23.9467 45.5399 24 45.3933 24H36.0533C35.9066 24 35.7799 23.9467 35.6733 23.84C35.5666 23.7333 35.5133 23.6067 35.5133 23.46V22.24C35.5133 22.0133 35.5799 21.82 35.7133 21.66C35.8466 21.4867 35.9599 21.3667 36.0533 21.3L41.9933 16.16ZM58.7594 15.22C58.7727 15.4733 58.7794 15.7533 58.7794 16.06C58.7794 16.3667 58.7794 16.68 58.7794 17C58.7794 17.32 58.7794 17.6333 58.7794 17.94C58.7794 18.2467 58.7727 18.5267 58.7594 18.78C58.7194 19.5533 58.5994 20.2733 58.3994 20.94C58.2127 21.5933 57.906 22.1667 57.4794 22.66C57.066 23.14 56.5194 23.52 55.8394 23.8C55.1727 24.0667 54.3527 24.2 53.3794 24.2C52.3927 24.2 51.566 24.0667 50.8994 23.8C50.2327 23.52 49.686 23.14 49.2594 22.66C48.846 22.1667 48.5394 21.5933 48.3394 20.94C48.1527 20.2733 48.0394 19.5533 47.9994 18.78C47.9727 18.2733 47.9594 17.7 47.9594 17.06C47.9594 16.4067 47.9727 15.8267 47.9994 15.32C48.0394 14.5467 48.1527 13.8267 48.3394 13.16C48.5394 12.48 48.846 11.8933 49.2594 11.4C49.686 10.9067 50.2327 10.52 50.8994 10.24C51.566 9.94667 52.3927 9.8 53.3794 9.8C54.3527 9.8 55.1727 9.94 55.8394 10.22C56.5194 10.4867 57.066 10.8667 57.4794 11.36C57.906 11.84 58.2127 12.4133 58.3994 13.08C58.5994 13.7333 58.7194 14.4467 58.7594 15.22ZM50.6994 18.68C50.766 19.64 50.9927 20.3867 51.3794 20.92C51.7794 21.44 52.446 21.7 53.3794 21.7C54.3127 21.7 54.9727 21.44 55.3594 20.92C55.7594 20.3867 55.9927 19.64 56.0594 18.68C56.086 18.1733 56.0994 17.6133 56.0994 17C56.0994 16.3867 56.086 15.8267 56.0594 15.32C55.9927 14.36 55.7594 13.62 55.3594 13.1C54.9727 12.5667 54.3127 12.3 53.3794 12.3C52.446 12.3 51.7794 12.5667 51.3794 13.1C50.9927 13.62 50.766 14.36 50.6994 15.32C50.6727 15.8267 50.6594 16.3867 50.6594 17C50.6594 17.6133 50.6727 18.1733 50.6994 18.68ZM71.8063 15.22C71.8196 15.4733 71.8263 15.7533 71.8263 16.06C71.8263 16.3667 71.8263 16.68 71.8263 17C71.8263 17.32 71.8263 17.6333 71.8263 17.94C71.8263 18.2467 71.8196 18.5267 71.8063 18.78C71.7663 19.5533 71.6463 20.2733 71.4463 20.94C71.2596 21.5933 70.9529 22.1667 70.5263 22.66C70.1129 23.14 69.5663 23.52 68.8863 23.8C68.2196 24.0667 67.3996 24.2 66.4263 24.2C65.4396 24.2 64.6129 24.0667 63.9463 23.8C63.2796 23.52 62.7329 23.14 62.3063 22.66C61.8929 22.1667 61.5863 21.5933 61.3863 20.94C61.1996 20.2733 61.0863 19.5533 61.0463 18.78C61.0196 18.2733 61.0063 17.7 61.0063 17.06C61.0063 16.4067 61.0196 15.8267 61.0463 15.32C61.0863 14.5467 61.1996 13.8267 61.3863 13.16C61.5863 12.48 61.8929 11.8933 62.3063 11.4C62.7329 10.9067 63.2796 10.52 63.9463 10.24C64.6129 9.94667 65.4396 9.8 66.4263 9.8C67.3996 9.8 68.2196 9.94 68.8863 10.22C69.5663 10.4867 70.1129 10.8667 70.5263 11.36C70.9529 11.84 71.2596 12.4133 71.4463 13.08C71.6463 13.7333 71.7663 14.4467 71.8063 15.22ZM63.7463 18.68C63.8129 19.64 64.0396 20.3867 64.4263 20.92C64.8263 21.44 65.4929 21.7 66.4263 21.7C67.3596 21.7 68.0196 21.44 68.4063 20.92C68.8063 20.3867 69.0396 19.64 69.1063 18.68C69.1329 18.1733 69.1463 17.6133 69.1463 17C69.1463 16.3867 69.1329 15.8267 69.1063 15.32C69.0396 14.36 68.8063 13.62 68.4063 13.1C68.0196 12.5667 67.3596 12.3 66.4263 12.3C65.4929 12.3 64.8263 12.5667 64.4263 13.1C64.0396 13.62 63.8129 14.36 63.7463 15.32C63.7196 15.8267 63.7063 16.3867 63.7063 17C63.7063 17.6133 63.7196 18.1733 63.7463 18.68ZM84.8531 15.22C84.8665 15.4733 84.8731 15.7533 84.8731 16.06C84.8731 16.3667 84.8731 16.68 84.8731 17C84.8731 17.32 84.8731 17.6333 84.8731 17.94C84.8731 18.2467 84.8665 18.5267 84.8531 18.78C84.8131 19.5533 84.6931 20.2733 84.4931 20.94C84.3065 21.5933 83.9998 22.1667 83.5731 22.66C83.1598 23.14 82.6131 23.52 81.9331 23.8C81.2665 24.0667 80.4465 24.2 79.4731 24.2C78.4865 24.2 77.6598 24.0667 76.9931 23.8C76.3265 23.52 75.7798 23.14 75.3531 22.66C74.9398 22.1667 74.6331 21.5933 74.4331 20.94C74.2465 20.2733 74.1331 19.5533 74.0931 18.78C74.0665 18.2733 74.0531 17.7 74.0531 17.06C74.0531 16.4067 74.0665 15.8267 74.0931 15.32C74.1331 14.5467 74.2465 13.8267 74.4331 13.16C74.6331 12.48 74.9398 11.8933 75.3531 11.4C75.7798 10.9067 76.3265 10.52 76.9931 10.24C77.6598 9.94667 78.4865 9.8 79.4731 9.8C80.4465 9.8 81.2665 9.94 81.9331 10.22C82.6131 10.4867 83.1598 10.8667 83.5731 11.36C83.9998 11.84 84.3065 12.4133 84.4931 13.08C84.6931 13.7333 84.8131 14.4467 84.8531 15.22ZM76.7931 18.68C76.8598 19.64 77.0865 20.3867 77.4731 20.92C77.8731 21.44 78.5398 21.7 79.4731 21.7C80.4065 21.7 81.0665 21.44 81.4531 20.92C81.8531 20.3867 82.0865 19.64 82.1531 18.68C82.1798 18.1733 82.1931 17.6133 82.1931 17C82.1931 16.3867 82.1798 15.8267 82.1531 15.32C82.0865 14.36 81.8531 13.62 81.4531 13.1C81.0665 12.5667 80.4065 12.3 79.4731 12.3C78.5398 12.3 77.8731 12.5667 77.4731 13.1C77.0865 13.62 76.8598 14.36 76.7931 15.32C76.7665 15.8267 76.7531 16.3867 76.7531 17C76.7531 17.6133 76.7665 18.1733 76.7931 18.68Z" fill="#FFD401"/>
<defs>
<clipPath id="clip0_174_8">
<rect width="20" height="20" fill="white" transform="translate(11 7)"/>
</clipPath>
</defs>
</svg>
